<?xml version="1.0" encoding="UTF-8" standalone="no"?>
<!-- Created with Inkscape (http://www.inkscape.org/) -->

<svg
   version="1.1"
   id="svg2"
   width="12962.897"
   height="15456.245"
   viewBox="0 0 12962.897 15456.245"
   sodipodi:docname="puzzlesoft_negyzet.svg"
   inkscape:version="1.4 (86a8ad7, 2024-10-11)"
   inkscape:export-filename="44-02b.png"
   inkscape:export-xdpi="50"
   inkscape:export-ydpi="50"
   xmlns:inkscape="http://www.inkscape.org/namespaces/inkscape"
   xmlns:sodipodi="http://sodipodi.sourceforge.net/DTD/sodipodi-0.dtd"
   xmlns="http://www.w3.org/2000/svg"
   xmlns:svg="http://www.w3.org/2000/svg">
  <defs
     id="defs6" />
  <sodipodi:namedview
     id="namedview4"
     pagecolor="#ffffff"
     bordercolor="#000000"
     borderopacity="0.25"
     inkscape:showpageshadow="2"
     inkscape:pageopacity="0.0"
     inkscape:pagecheckerboard="0"
     inkscape:deskcolor="#d1d1d1"
     inkscape:zoom="0.018488413"
     inkscape:cx="17713.798"
     inkscape:cy="2244.6491"
     inkscape:window-width="3840"
     inkscape:window-height="2071"
     inkscape:window-x="4791"
     inkscape:window-y="-9"
     inkscape:window-maximized="1"
     inkscape:current-layer="g8" />
  <g
     id="g8"
     inkscape:groupmode="layer"
     inkscape:label="ink_ext_XXXXXX"
     transform="matrix(1.3333333,0,0,-1.3333333,-6700.4235,17042.519)">
    <g
       id="g2"
       transform="matrix(4.3175955,0,0,4.3175955,4621.7019,2688.3678)">
      <path
         d="m 875.94,2000.4 c 50.923,11.26 141.93,-39.57 148.6,35.09 1.63,18.28 -9.84,44.47 -13.77,62.26 -9.37,42.35 -18.733,84.69 -28.098,127.03 -5.253,23.75 -7.029,87.4 -23.241,105.08 -28.638,31.23 -230.488,-39.46 -277.072,-49.76 -165.001,-36.5 -330.001,-72.99 -495.001,-109.49 -13.034,-2.88 -79.849,-8 -87.13,-19.64 -8.9592,-14.32 20.613,-93.19 24.019,-108.59 36.941,-167.02 73.883,-334.04 110.824,-501.07 14.584,-65.94 29.168,-131.87 43.752,-197.81 9.889,-44.71 -0.554,-42.52 40.393,-39.59 78.132,5.58 161.352,35.69 237.933,52.62 23.115,5.12 56.098,6.67 66.389,32.2 17.534,43.51 -67.444,106.01 -59.214,163.34 17.063,118.84 215.074,127.66 235.83,5.49 8.508,-50.07 -38.164,-132.43 35.156,-139.5 19.856,-1.92 50.817,11.24 69.722,15.42 48.099,10.64 96.198,21.28 144.298,31.91 14.06,3.11 86.81,8.47 95.63,21.16 6.03,8.68 -10.63,52.57 -13.06,63.54 -10.59,47.89 -21.19,95.78 -31.78,143.67 -6.81,30.8 -8.74,71.27 -22.09,99.88 -32.11,68.84 -87.625,-5.04 -133.624,-20.68 -144.408,-49.1 -211.424,195.82 -68.466,227.44"
         style="fill:#72c1b9;fill-opacity:1;fill-rule:nonzero;stroke:none;stroke-width:0.1"
         id="path12"
         inkscape:export-filename="path12.png"
         inkscape:export-xdpi="150"
         inkscape:export-ydpi="150"
         inkscape:label="puzzle-top-left" />
      <path
         d="m 2310.86,2201.45 c -284.75,0 -569.5,0 -854.24,0 -57.59,0 -60.81,12.41 -60.81,-49.26 0,-67.95 0,-135.89 0,-203.84 0,-21.28 7.08,-57.56 -2.38,-78 -27.44,-59.36 -116.94,13.76 -169.58,3.88 -122.61,-23.02 -108.63,-235.46 19.29,-236.63 52.11,-0.48 130.3,70.05 152.67,-2.16 6.31,-20.36 0,-53.13 0,-74.17 0,-43.39 0,-86.78 0,-130.17 0,-23.47 -11.3,-83.57 0,-104.63 14,-26.08 95.96,-11.48 130.34,-11.48 42.78,0 85.55,0 128.33,0 20.14,0 61.28,7.62 79.83,-4.78 44.66,-29.85 -23.07,-119.59 -14.33,-167.18 11.12,-60.65 70.25,-87.53 127.19,-83.98 55.96,3.5 102.66,35.18 108.66,93.63 5.64,54.98 -68.67,138.62 4.31,162.31 57.65,18.72 151.64,0 212.01,0 17.08,0 125.41,-12.77 138.71,2.07 16.26,18.16 0,125.38 0,148.8 0,100.14 0,200.28 0,300.41 0,145.06 0,290.12 0,435.18"
         style="fill:#56b1a4;fill-opacity:1;fill-rule:nonzero;stroke:none;stroke-width:0.1"
         id="path14"
         inkscape:label="puzzle-top-right" />
      <path
         d="m 1564.45,486.58 c -52.14,-0.81 -131.1,67.25 -152.62,-4.55 -5.26,-17.58 0.72,-45.54 1,-63.76 0.68,-43.36 1.36,-86.72 2.03,-130.08 0.38,-24.32 -10.65,-87.04 1.68,-107.61 21.79,-36.34 233.72,-7.6 281.42,-6.85 168.97,2.64 337.94,5.28 506.91,7.92 13.34,0.2 79.83,-8.19 89.3,1.75 11.65,12.23 -1.49,95.44 -1.74,111.21 -2.67,171.03 -5.34,342.07 -8.01,513.11 -1.06,67.52 -2.11,135.05 -3.17,202.57 -0.71,45.78 9.08,41.54 -31.62,46.89 -77.67,10.21 -165.24,-2.58 -243.66,-3.81 -23.67,-0.37 -56.29,4.73 -71.5,-18.22 -25.91,-39.1 44.8,-117.38 25.23,-171.89 -40.56,-113 -236.32,-81.9 -232.13,41.94 1.71,50.77 63.96,122.08 -6.45,143.72 -19.06,5.87 -52.04,-0.81 -71.4,-1.11 -49.25,-0.77 -98.51,-1.54 -147.76,-2.31 -14.4,-0.22 -86.74,9.13 -97.93,-1.53 -7.65,-7.29 -0.13,-53.64 0.04,-64.87 0.77,-49.04 1.53,-98.08 2.3,-147.12 0.49,-31.55 -5.73,-71.58 1.6,-102.28 17.64,-73.89 86.85,-12.66 135.05,-6.56 151.33,19.11 167.83,-234.27 21.43,-236.56"
         style="fill:#e7ad18;fill-opacity:1;fill-rule:nonzero;stroke:none;stroke-width:0.1"
         id="path16"
         inkscape:label="puzzle-bottom-right" />
      <path
         d="m 215.362,165.02 c 284.747,0 569.494,0 854.238,0 57.59,0 60.81,-12.41 60.81,49.26 0,67.95 0,135.89 0,203.84 0,21.28 -7.08,57.56 2.37,78 27.45,59.36 116.95,-13.76 169.59,-3.88 122.61,23.02 108.63,235.46 -19.29,236.63 -52.11,0.48 -130.3,-70.05 -152.67,2.16 -6.31,20.36 0,53.13 0,74.17 0,43.39 0,86.78 0,130.17 0,23.47 11.3,83.57 0,104.63 -14,26.08 -95.96,11.48 -130.34,11.48 -42.777,0 -85.551,0 -128.327,0 -20.147,0 -61.282,-7.62 -79.837,4.78 -44.657,29.85 23.071,119.6 14.338,167.18 -11.129,60.65 -70.256,87.53 -127.195,83.98 -55.961,-3.5 -102.66,-35.18 -108.656,-93.63 -5.643,-54.98 68.671,-138.62 -4.312,-162.31 -57.651,-18.72 -151.643,0 -212.009,0 -17.079,0 -125.413,12.77 -138.71,-2.07 -16.264,-18.16 0,-125.38 0,-148.8 0,-100.14 0,-200.27 0,-300.41 0,-145.06 0,-290.12 0,-435.18"
         style="fill:#4f8b92;fill-opacity:1;fill-rule:nonzero;stroke:none;stroke-width:0.1"
         id="path18"
         inkscape:label="puzzle-bottom-left" />
    </g>
    <g
       id="g1"
       transform="matrix(0.65565923,0,0,0.65565923,3245.9505,1096.2231)">
      <path
         id="text3"
         style="font-style:normal;font-variant:normal;font-weight:bold;font-stretch:normal;font-size:432px;line-height:1.25;font-family:Oxanium;-inkscape-font-specification:'Oxanium, Bold';font-variant-ligatures:normal;font-variant-caps:normal;font-variant-numeric:normal;font-variant-east-asian:normal;fill:#4f8b92;fill-opacity:1;stroke-width:5.111"
         d="m 9349.502,727.14054 c 0.065,-21.94456 0.6117,-44.0864 1.9546,-65.51062 3.9286,-64.92508 14.1931,-129.78983 34.7271,-191.63631 1.4415,-4.11075 3.5201,-10.3198 5.3392,-15.21096 25.5902,-70.78046 67.2402,-136.52613 124.4683,-185.90502 59.595,-52.07292 133.6818,-85.24605 210.1608,-103.69367 50.4196,-12.31273 102.1467,-18.67654 153.9359,-21.28324 11.1937,-0.52717 23.8912,-0.93245 35.6709,-1.15841 4.224,0 9.9356,-1.52434 7.9731,4.70411 0,108.74528 0,217.48867 0,326.23391 -46.4275,6.08383 -93.564,21.27644 -128.7215,53.38584 -31.0957,27.89812 -49.2608,67.79485 -55.7622,108.60783 -5.9528,35.03725 -3.3541,70.69508 -3.9324,106.04668 0,529.46172 0,1058.92422 0,1588.38622 -128.6051,0 -257.2089,0 -385.8138,0 0,-534.3235 0,-1068.6447 0,-1602.96636 z M 2713.8608,172.03762 c 134.492,0 268.9832,0 403.4765,0 0,215.89154 0,431.78328 0,647.6732 195.9101,0.0731 391.8232,-0.12408 587.734,0.0925 27.8048,0.35896 54.7877,1.88929 82.6155,5.04114 40.1492,4.55654 79.9999,12.545 118.3815,25.28843 3.9803,1.3943 10.0847,3.42773 14.8216,5.25943 52.7293,19.38279 102.2134,49.59092 141.4269,90.95295 28.1836,29.49685 50.6566,64.18153 67.5184,101.26693 1.299,2.9884 3.6642,8.2226 5.2547,12.1298 26.2687,63.1849 37.5673,131.5975 40.998,199.6442 0.4307,9.5752 0.8114,20.7623 0.9686,30.9636 0.2248,137.4277 0.085,274.8587 0.076,412.2862 -0.076,17.0841 -0.6027,34.2339 -1.6393,50.7977 -4.2326,69.087 -17.1274,138.4682 -45.7662,201.8342 -1.3768,2.7699 -3.642,7.8262 -5.459,11.452 -26.3243,54.0312 -66.1895,101.5841 -115.8846,135.562 -15.5532,10.6955 -31.9305,20.1688 -48.8761,28.4782 -3.2923,1.4667 -8.5963,4.1298 -12.7578,5.9124 -13.1056,5.932 -27.8648,11.4849 -40.6818,15.8087 -54.3641,18.0606 -111.4997,26.4892 -168.5833,29.3619 -9.5704,0.439 -20.7526,0.808 -30.951,0.9547 -170.6529,0.2548 -341.3085,0.07 -511.962,0.1061 -160.2366,0 -320.4745,0 -480.7116,0 0,-670.2926 0,-1340.58414 0,-2010.87479 z M 3127.5593,1820.643 c 184.51,-0.072 369.024,0.1129 553.5327,-0.09 26.0737,-0.6606 53.8654,-8.4394 71.256,-29.0478 17.9715,-20.8419 22.0033,-49.5982 21.3269,-76.2055 -0.072,-146.9117 0.1196,-293.8247 -0.091,-440.7321 -0.6805,-26.0653 -8.4216,-53.8744 -29.0473,-71.2441 -20.8343,-17.9956 -49.5968,-22.0173 -76.2081,-21.34 -183.6635,0 -367.3263,0 -550.9895,0 0,212.889 0,425.7753 0,638.6633 3.407,0 6.8154,0 10.2223,0 z M 4550.8799,638.81563 c 0.078,-17.91823 0.4916,-35.95955 1.6199,-53.34094 1.6511,-27.42305 4.964,-55.81636 9.841,-82.18062 4.3953,-23.7237 10.2539,-47.18515 17.8624,-70.08906 1.4105,-4.05545 3.4859,-10.24358 5.3493,-15.04789 21.927,-59.61911 58.5875,-114.46219 108.6313,-154.05678 20.434,-16.41396 42.8515,-30.27735 66.3679,-41.81762 2.0226,-0.92087 7.6716,-3.58624 9.6225,-4.53819 64.0848,-28.96859 134.4556,-41.16582 204.3208,-44.66845 11.3199,-0.52277 24.1207,-0.93569 36.0322,-0.98011 285.4844,-0.13305 570.9661,0 856.4501,-0.0729 0,511.31784 0,1022.63573 0,1533.95243 -128.6045,0 -257.2097,0 -385.813,0 0,-400.3738 0,-800.75067 0,-1201.12503 -148.7793,0.078 -297.5591,-0.13816 -446.3353,0.10374 -26.9405,0.72298 -55.585,8.4219 -74.131,29.13863 -19.4079,21.29256 -24.5201,51.38276 -24.0027,79.27344 0,364.20287 0,728.40512 0,1092.60822 -128.6043,0 -257.2109,0 -385.8154,0 0,-355.7253 0,-711.45048 0,-1067.17489 z M 6252.4718,1373.165 c 236.3272,0 472.6541,0 708.9805,0 -246.1515,-302.925 -492.2779,-605.86934 -738.4221,-908.80167 0,-97.44213 0,-194.88431 0,-292.32571 419.077,0 838.1525,0 1257.227,0 0,110.94261 0,221.88495 0,332.82851 -254.9453,0 -509.8925,0 -764.8391,0 245.1284,302.93711 490.2657,605.86567 735.3987,908.79867 0,97.4443 0,194.8849 0,292.3263 -399.4479,0 -798.8957,0 -1198.345,0 0,-110.9426 0,-221.8851 0,-332.8261 z m 1524.9562,0 c 236.3271,0 472.6522,0 708.9789,0 -246.1516,-302.925 -492.277,-605.86934 -738.4197,-908.80167 0,-97.44213 0,-194.88431 0,-292.32571 419.0749,0 838.1513,0 1257.2266,0 0,110.94261 0,221.88495 0,332.82851 -254.9463,0 -509.8931,0 -764.84,0 245.1282,302.93711 490.2676,605.86567 735.3996,908.79867 0,97.4443 0,194.8849 0,292.3263 -399.4478,0 -798.8968,0 -1198.3454,0 0,-110.9426 0,-221.8851 0,-332.8261 z m 2925.066,332.7197 c -13.913,-0.2851 -27.235,-0.7407 -40.769,-1.6315 -50.666,-3.1716 -102.545,-11.7339 -149.989,-27.4899 -58.957,-19.4539 -114.339,-52.085 -156.065,-98.4949 -22.241,-24.4334 -40.599,-52.2808 -55.082,-81.9487 -0.922,-2.0229 -3.587,-7.6717 -4.54,-9.6231 -6.137,-13.4999 -11.953,-28.6084 -16.384,-41.8592 -17.419,-52.3916 -25.522,-107.4609 -28.297,-162.473 -0.414,-9.4457 -0.807,-20.492 -0.934,-30.5679 -0.202,-204.8074 -0.07,-409.61505 -0.08,-614.42221 0.171,-68.57842 7.495,-138.3593 29.312,-204.16928 1.412,-4.05545 3.487,-10.24358 5.35,-15.04789 21.921,-59.62272 58.588,-114.46492 108.631,-154.05678 20.432,-16.41745 42.843,-30.29124 66.368,-41.81762 2.023,-0.92087 7.673,-3.58624 9.623,-4.53819 64.082,-28.96859 134.457,-41.16715 204.32,-44.66845 11.317,-0.52277 24.113,-0.93569 36.019,-0.98011 209.254,-0.13305 418.508,0 627.761,-0.0729 56.61,42.45874 113.222,84.91808 169.834,127.37594 0,68.48439 0,136.96762 0,205.45146 -257.303,0.078 -514.61,-0.0987 -771.913,0.0821 -27.38,0.5014 -56.626,8.09886 -75.499,29.1691 -19.413,21.28701 -24.515,51.38416 -24.003,79.27385 0,61.9032 0,123.80677 0,185.70971 310.096,0 620.189,0 930.283,0 -0.07,151.50865 0.151,303.01567 -0.09,454.52187 -0.901,54.1045 -6.486,109.0851 -20.496,161.9559 -2.468,9.6365 -5.849,20.3828 -8.614,29.026 -4.817,14.2875 -10.264,28.3599 -16.479,42.0994 -0.956,1.9623 -3.622,7.6065 -4.539,9.6223 -25.398,52.5934 -64.005,98.9497 -112.31,131.9674 -30.308,20.9557 -63.951,36.7787 -98.838,48.4768 -4.028,1.2172 -10.104,3.2953 -14.984,4.6663 -47.802,14.2068 -97.531,21.0187 -147.249,23.5363 -9.45,0.4173 -20.501,0.8047 -30.581,0.9343 -134.231,0.1806 -268.467,0.095 -402.701,0.07 -2.345,0 -4.691,-0.07 -7.037,-0.07 z m 38.012,-332.7197 c 113.987,-0.075 227.975,0.1341 341.959,-0.1014 27.204,-0.6685 56.129,-8.6037 74.683,-29.6818 19.139,-21.4997 24.05,-51.5342 23.477,-79.4104 0,-57.7517 0,-115.5005 0,-173.2501 -181.488,0 -362.979,0 -544.469,0 0.105,61.8953 -0.226,123.798 0.181,185.689 0.852,27.1724 9.198,56.031 30.63,74.1428 20.126,17.3987 47.654,22.6312 73.545,22.6186 z"
         inkscape:label="puzzle-text" />
      <path
         id="text4"
         style="font-style:normal;font-variant:normal;font-weight:bold;font-stretch:normal;font-size:432px;line-height:1.25;font-family:Oxanium;-inkscape-font-specification:'Oxanium, Bold';font-variant-ligatures:normal;font-variant-caps:normal;font-variant-numeric:normal;font-variant-east-asian:normal;fill:#e7ad18;fill-opacity:1;stroke-width:5.111"
         d="m 15871.356,2315.2787 c -54.246,-0.917 -109.385,-6.5577 -162.378,-20.6805 -9.632,-2.5025 -19.138,-5.4663 -28.606,-8.5341 -4.054,-1.4132 -10.243,-3.4851 -15.046,-5.3536 -60.277,-22.1184 -115.62,-59.4078 -155.338,-110.2229 -15.876,-19.9912 -29.299,-41.8677 -40.536,-64.7734 -0.923,-2.0232 -3.588,-7.6723 -4.54,-9.6222 -28.984,-64.0773 -41.158,-134.4599 -44.668,-204.3203 -0.521,-11.3175 -0.934,-24.1112 -0.979,-36.02 -0.129,-487.3532 0,-974.70946 -0.06,-1462.06401 0,-78.79043 0,-157.58066 0,-236.37041 128.608,0 257.218,0 385.827,0 0,400.37396 0,800.75218 0,1201.12572 168.783,0 337.565,0 506.35,0 0,110.9474 0,221.8939 0,332.8407 -168.785,0 -337.567,0 -506.35,0 0.09,64.8376 -0.214,129.6809 0.162,194.5152 0.853,27.1723 9.214,56.0181 30.631,74.1423 21.626,18.6386 51.411,23.2297 79.075,22.6168 141.975,0 283.95,0 425.925,0 0,68.488 0,136.9768 0,205.4647 -56.609,42.4589 -113.215,84.9161 -169.822,127.3754 -99.881,-0.076 -199.765,0.1609 -299.645,-0.1081 z m -3515.61,-147.2061 c -13.765,-0.2721 -27.14,-0.7081 -40.475,-1.5786 -65.078,-4.0475 -130.314,-15.782 -190.652,-41.1347 -3.533,-1.616 -9.265,-3.9556 -13.573,-6.0552 -57.311,-26.2759 -108.042,-67.4102 -143.706,-119.5764 -36.137,-52.1741 -57.495,-113.291 -68.966,-175.371 -1.427,-7.7686 -2.998,-17.279 -4.229,-25.7504 -3.278,-23.2436 -5.419,-46.6382 -6.592,-70.0819 -0.491,-11.219 -0.945,-23.9251 -1.006,-35.7337 -0.06,-63.448 -0.249,-126.9029 0.09,-190.35 0.618,-36.8722 3.862,-74.6666 10.083,-110.4307 12.338,-71.0199 38.408,-141.0275 84.128,-197.4831 42.398,-53.1797 101.095,-91.7849 164.55,-115.2562 36.042,-13.8257 73.832,-22.0975 111.528,-29.4696 183.941,-37.6727 367.843,-75.56436 551.815,-113.09924 25.641,-4.30718 50.475,-18.4666 63.547,-41.50253 14.085,-23.60648 15.735,-51.92593 15.114,-78.7355 -0.08,-68.31109 0.189,-136.62698 -0.129,-204.93552 -0.708,-26.29947 -8.896,-54.36563 -30.063,-71.4843 -20.965,-17.45465 -49.453,-21.11823 -75.838,-20.45804 -298.302,0 -596.602,0 -894.903,0 0,-71.46584 0,-142.93077 0,-214.39617 63.515,-49.29125 127.029,-98.58174 190.544,-147.87252 246.579,0.0731 493.159,-0.10952 739.737,0.0855 28.08,0.31595 55.241,1.77429 83.307,4.91641 18.494,2.0313 37.363,4.91582 55.024,8.46755 70.948,13.94735 140.626,41.80955 195.862,89.38128 36.918,31.21204 67.008,72.01894 87.677,114.57096 3.918,8.13601 7.883,16.86335 10.978,24.51238 25.741,62.65846 36.821,130.38144 40.227,197.75037 0.438,9.57038 0.808,20.75279 0.955,30.95153 0.17,72.21354 0.21,144.43103 0,216.64529 -0.358,21.32758 -1.499,42.89802 -3.514,63.31732 -1.605,16.87004 -3.813,32.71534 -6.663,49.31768 -1.832,10.42922 -4.226,22.27877 -6.833,33.14496 -8.161,34.36899 -19.829,67.97359 -35.717,99.55499 -2.519,4.8586 -5.987,11.4816 -9.088,16.9058 -30.863,54.831 -76.892,100.7766 -131.412,132.1019 -51.341,29.9831 -108.935,47.5261 -167.156,58.2007 -187.825,37.617 -375.694,75.0359 -563.492,112.7757 -25.406,5.6478 -49.67,20.4239 -62.5,43.6162 -13.259,22.7155 -15.093,49.7446 -14.431,75.4514 0.09,61.9057 -0.213,123.8176 0.164,185.7195 0.816,26.0628 9.06,53.8023 30.027,70.7556 20.96,17.4656 49.45,21.1466 75.841,20.4663 278.678,0 557.357,0 836.034,0 0,71.4651 0,142.9307 0,214.3964 -63.516,49.2904 -127.032,98.5818 -190.546,147.8737 -227.183,-0.072 -454.367,0.107 -681.55,-0.085 -1.395,0 -2.793,0 -4.191,0 z M 16620.331,624.09556 c 0.06,-18.64673 0.569,-37.21877 1.741,-55.39649 3.31,-50.89688 11.476,-101.7241 27.595,-150.21392 1.413,-4.05555 3.484,-10.24492 5.353,-15.04777 21.97,-59.85257 58.867,-114.84979 109.16,-154.49679 34.852,-27.91904 75.307,-48.26982 117.558,-62.38135 4.237,-1.29115 10.527,-3.4374 15.622,-4.85988 47.606,-14.06767 97.106,-20.84488 146.599,-23.34408 11.317,-0.5229 24.112,-0.93631 36.019,-0.98009 97.384,-0.13345 194.768,0 292.151,-0.0726 56.606,42.45832 113.214,84.91709 169.82,127.37594 0,68.48427 0,136.96775 0,205.45062 -145.888,0.078 -291.783,-0.13785 -437.67,0.10365 -26.946,0.72203 -55.595,8.43288 -74.139,29.15816 -19.391,21.29236 -24.512,51.37017 -23.98,79.2536 0,253.26047 0,506.52134 0,759.78034 168.782,0 337.566,0 506.347,0 0,110.9464 0,221.8945 0,332.8419 -168.781,0 -337.565,0 -506.347,0 0,158.9691 0,317.9369 0,476.9061 -128.611,0 -257.221,0 -385.829,0 0,-514.6984 0,-1029.396 0,-1544.09455 z M 14104.985,1691.164 c -54.246,-0.9172 -109.387,-6.5599 -162.377,-20.681 -9.632,-2.5071 -19.14,-5.4705 -28.607,-8.5342 -4.054,-1.4109 -10.243,-3.4869 -15.047,-5.3496 -60.267,-22.1328 -115.617,-59.4057 -155.328,-110.223 -27.501,-34.604 -47.573,-74.677 -61.55,-116.5003 -1.291,-4.235 -3.437,-10.5282 -4.859,-15.6225 -14.079,-47.607 -20.831,-97.1133 -23.344,-146.6114 -0.418,-9.4445 -0.805,-20.4911 -0.934,-30.5665 -0.203,-204.8076 -0.06,-409.61571 -0.07,-614.42277 0.17,-68.57702 7.492,-138.35829 29.311,-204.16758 1.411,-4.05687 3.486,-10.24443 5.351,-15.04885 21.983,-59.8443 58.869,-114.84968 109.166,-154.49102 34.855,-27.91748 75.301,-48.27451 117.556,-62.38604 4.026,-1.21832 10.102,-3.29647 14.982,-4.66733 47.797,-14.20131 97.52,-21.02528 147.237,-23.53663 11.316,-0.5229 24.11,-0.93631 36.02,-0.98009 142.913,-0.0846 285.83,-0.12181 428.745,0 27.902,0.27339 54.978,1.78819 82.865,4.98874 38.373,4.40848 76.454,12.08315 113.141,24.26771 4.051,1.41269 10.234,3.48663 15.033,5.35269 60.495,22.19123 115.998,59.68594 155.768,110.75095 44.594,56.44788 69.164,126.20856 80.761,196.58729 8.517,50.33334 10.102,100.448 9.592,151.32937 -0.06,195.16679 0.117,390.33166 -0.08,585.49736 -0.902,67.9935 -9.173,137.4652 -32.129,202.3041 -3.996,11.3602 -8.555,22.5156 -13.484,33.5029 -0.955,1.9631 -3.622,7.6056 -4.538,9.6228 -25.402,52.5902 -64.001,98.9501 -112.31,131.9655 -30.313,20.949 -63.951,36.7811 -98.839,48.4765 -4.028,1.2186 -10.102,3.2961 -14.984,4.6687 -47.798,14.1973 -97.521,21.0247 -147.236,23.5364 -11.32,0.5188 -24.12,0.9349 -36.034,0.9791 -142.914,0.08 -285.83,0.1184 -428.746,0 -1.67,0 -3.338,0 -5.007,-0.072 z m 38.04,-332.721 c 123.805,-0.072 247.61,0.1129 371.414,-0.087 26.946,-0.7173 55.593,-8.4361 74.138,-29.1572 19.399,-21.2916 24.504,-51.3698 23.997,-79.2545 -0.06,-220.098 0.09,-440.196 -0.07,-660.29368 -0.501,-27.38738 -8.117,-56.63409 -29.189,-75.50436 -21.29,-19.40108 -51.369,-24.50857 -79.254,-23.996 -122.423,0.0779 -244.849,-0.13786 -367.27,0.10364 -26.95,0.71768 -55.589,8.43722 -74.138,29.15712 -19.399,21.29102 -24.498,51.37217 -23.986,79.25373 0.07,220.09888 -0.08,440.19815 0.07,660.29365 0.506,27.3858 8.096,56.6703 29.205,75.5144 20.165,18.4509 48.546,24.0092 75.082,23.9727 z"
         inkscape:label="soft-text" />
    </g>
  </g>
</svg>
